<svg width="4096px" height="4096px" xmlns="http://www.w3.org/2000/svg" xmlns:xlink="http://www.w3.org/1999/xlink">
<g style="">  <ellipse cx="2048.000000" cy="2048.000000" rx="1932.000000" ry="1932.000000" stroke-linejoin="round" style="fill: rgba(113, 33, 156, 1.000000); stroke-width: 48.000000px; stroke: rgba(255, 255, 255, 1.000000); " fill="#8539ac" stroke="#ffffff" stroke-width="48.000000"  />
</g><g style="">  <path d="M809.710919,3080.000000 L408.000000,3080.000000 " stroke-linejoin="round" style="fill: rgba(113, 33, 156, 1.000000); stroke-width: 48.000000px; stroke: rgba(255, 255, 255, 1.000000); " fill="#8539ac" stroke="#ffffff" stroke-width="48.000000" />
  <path d="M2029.044250,3080.000000 L1627.333331,3080.000000 " stroke-linejoin="round" style="fill: rgba(113, 33, 156, 1.000000); stroke-width: 48.000000px; stroke: rgba(255, 255, 255, 1.000000); " fill="#8539ac" stroke="#ffffff" stroke-width="48.000000" />
  <path d="M3194.424780,3080.000000 L2792.713861,3080.000000 " stroke-linejoin="round" style="fill: rgba(113, 33, 156, 1.000000); stroke-width: 48.000000px; stroke: rgba(255, 255, 255, 1.000000); " fill="#8539ac" stroke="#ffffff" stroke-width="48.000000" />
  <path d="M1419.377585,3080.000000 L1017.666666,3080.000000 " stroke-linejoin="round" style="fill: rgba(113, 33, 156, 1.000000); stroke-width: 48.000000px; stroke: rgba(255, 255, 255, 1.000000); " fill="#8539ac" stroke="#ffffff" stroke-width="48.000000" />
  <path d="M2638.710916,3080.000000 L2236.999997,3080.000000 " stroke-linejoin="round" style="fill: rgba(113, 33, 156, 1.000000); stroke-width: 48.000000px; stroke: rgba(255, 255, 255, 1.000000); " fill="#8539ac" stroke="#ffffff" stroke-width="48.000000" />
  <path d="M3695.766956,3080.000000 L3402.380526,3080.000000 " stroke-linejoin="round" style="fill: rgba(113, 33, 156, 1.000000); stroke-width: 48.000000px; stroke: rgba(255, 255, 255, 1.000000); " fill="#8539ac" stroke="#ffffff" stroke-width="48.000000" />
</g><g style="">  <path d="M2248.829577,2880.076796 C2248.829577,2880.076796,2269.509747,2903.672166,2270.067348,2903.069092 C2270.624949,2902.466019,2647.176871,3078.356239,2647.176871,3078.356239 C2647.176871,3078.356239,2737.654293,3028.894523,2737.654293,3028.894523 L2248.829577,2880.076796 Z " stroke-linejoin="round" style="fill: rgba(249, 255, 250, 1.000000); stroke-width: 6.000000px; stroke: rgba(31, 31, 31, 1.000000); " fill="#f9fffb" stroke="#292929" stroke-width="6.000000" />
  <path d="M3154.481428,3417.697855 C3098.766052,3402.616406,3064.207758,3351.201591,3077.293304,3302.859664 C3090.378847,3254.517736,3146.153030,3227.554796,3201.868405,3242.636246 C3257.583782,3257.717695,3292.142075,3309.132510,3279.056529,3357.474436 C3265.970986,3405.816365,3210.196804,3432.779305,3154.481428,3417.697855 Z M2805.479438,3125.795022 C2891.338508,3155.893451,2930.977667,3208.972663,2964.360572,3241.809912 C2997.743473,3274.647156,3029.547649,3336.911045,3035.750474,3355.789286 C3041.953302,3374.667532,3049.687127,3389.046948,3059.032097,3400.973057 C3133.056568,3495.045048,3265.056736,3465.289078,3300.749290,3408.917093 C3336.441830,3352.545094,3324.450892,3307.943322,3302.773403,3268.842819 C3281.095914,3229.742316,3237.364307,3211.651474,3237.364307,3211.651474 L2820.976454,3085.579539 C2820.976454,3085.579539,2805.125180,3125.467433,2805.479460,3125.795000 Z " stroke-linejoin="round" style="fill: rgba(249, 255, 250, 1.000000); stroke-width: 6.000000px; stroke: rgba(31, 31, 31, 1.000000); " fill="#f9fffb" stroke="#292929" stroke-width="6.000000" />
  <path d="M2778.070768,3095.224592 C2769.251830,3104.762721,2754.370478,3105.345741,2744.832349,3096.526804 C2735.294220,3087.707866,2734.711199,3072.826514,2743.530137,3063.288385 C2752.349075,3053.750255,2767.230427,3053.167235,2776.768556,3061.986173 C2786.306686,3070.805111,2786.889706,3085.686463,2778.070768,3095.224592 Z M3197.648501,2870.711103 C3143.442064,2890.543293,3085.549581,2868.492954,3068.341993,2821.460272 C3051.134406,2774.427593,3081.127915,2720.222899,3135.334353,2700.390710 C3189.540789,2680.558520,3247.433272,2702.608859,3264.640860,2749.641541 C3281.848447,2796.674220,3251.854938,2850.878914,3197.648513,2870.711115 Z M2301.805872,3284.879157 L2281.743261,3308.699794 L2790.673790,3117.575287 L2823.898797,3046.275619 L3216.990427,2906.169986 C3216.990427,2906.169986,3375.793456,2839.804521,3285.012819,2699.627416 C3187.020017,2583.518592,3040.854927,2694.921573,3037.919783,2732.753927 C3024.893102,2764.525513,3023.328984,2785.314356,2985.307937,2846.947825 C2947.286888,2908.581296,2887.259806,2963.601411,2857.010475,2980.756936 Z " stroke-linejoin="round" style="fill: rgba(249, 255, 250, 1.000000); stroke-width: 6.000000px; stroke: rgba(31, 31, 31, 1.000000); " fill="#f9fffb" stroke="#292929" stroke-width="6.000000" />
</g><g style="">  <path d="M467.228516,1819.585938 L467.691406,1806.162109 C471.085954,1713.892117,494.384550,1626.715254,537.587891,1544.628906 C577.396683,1469.640250,627.542666,1409.002185,688.027344,1362.712891 C747.894831,1317.040787,806.218466,1294.205078,863.000000,1294.205078 C906.203341,1294.205078,940.302609,1309.171725,965.298828,1339.105469 C986.591903,1365.027473,997.238281,1396.812312,997.238281,1434.460938 C997.238281,1479.515850,980.728681,1523.952906,947.708984,1567.773438 C928.576076,1593.078252,908.209092,1611.285101,886.607422,1622.394531 C876.423777,1627.949247,866.934614,1630.726562,858.139648,1630.726562 C849.344683,1630.726562,841.244178,1628.875019,833.837891,1625.171875 C826.431604,1621.468731,819.951200,1616.839872,814.396484,1611.285156 C802.978459,1599.249940,797.269531,1588.449267,797.269531,1578.882812 C797.269531,1569.316358,799.738257,1562.681659,804.675781,1558.978516 C855.285409,1522.564271,889.693268,1485.070505,907.900391,1446.496094 C914.998082,1431.683520,918.546875,1417.179758,918.546875,1402.984375 C918.546875,1373.050632,904.351704,1358.083984,875.960938,1358.083984 C831.523215,1358.083984,785.697502,1382.308352,738.482422,1430.757812 C694.353295,1475.504130,657.322415,1531.667631,627.388672,1599.250000 C596.220547,1668.683941,579.710947,1732.407913,577.859375,1790.423828 L577.396484,1808.013672 C577.396484,1877.447613,592.054541,1922.964736,621.371094,1944.566406 C631.863334,1952.281289,644.438403,1956.138672,659.096680,1956.138672 C673.754956,1956.138672,687.564388,1954.287128,700.525391,1950.583984 C713.486393,1946.880841,726.447201,1941.789095,739.408203,1935.308594 C760.392683,1924.507758,787.240071,1905.838023,819.951172,1879.298828 C829.826221,1871.583946,838.003874,1872.664013,844.484375,1882.539062 C850.039090,1890.562540,852.816406,1899.820260,852.816406,1910.312500 C852.816406,1927.902432,850.424829,1939.860320,845.641602,1946.186523 C840.858375,1952.512727,832.680722,1959.996051,821.108398,1968.636719 C809.536075,1977.277387,795.418052,1985.300744,778.753906,1992.707031 C739.870899,2009.988368,701.759952,2018.628906,664.419922,2018.628906 C627.079891,2018.628906,596.992302,2014.077194,574.156250,2004.973633 C551.320198,1995.870072,532.033282,1982.832116,516.294922,1965.859375 C483.583821,1930.062321,467.228516,1881.304996,467.228516,1819.585938 Z M962.984375,2002.890625 C956.812469,1998.261696,951.875019,1993.092802,948.171875,1987.383789 C944.468731,1981.674776,942.462892,1976.737326,942.154297,1972.571289 C941.845702,1968.405253,942.694326,1963.313507,944.700195,1957.295898 C946.706065,1951.278290,949.406233,1943.949262,952.800781,1935.308594 C1015.754221,1780.393757,1047.230469,1676.398703,1047.230469,1623.320312 C1046.304683,1608.507738,1041.212937,1598.015656,1031.955078,1591.843750 L1022.697266,1585.363281 C1019.919908,1583.203114,1018.454102,1579.422879,1018.299805,1574.022461 C1018.145507,1568.622043,1020.074199,1563.453150,1024.085938,1558.515625 C1028.097676,1553.578100,1033.343718,1549.257831,1039.824219,1545.554688 C1053.093816,1538.456996,1066.748953,1534.908203,1080.790039,1534.908203 C1094.831125,1534.908203,1105.786093,1536.451156,1113.655273,1539.537109 C1121.524453,1542.623062,1128.236300,1546.789036,1133.791016,1552.035156 C1145.517637,1563.144587,1151.458007,1574.871032,1151.612305,1587.214844 C1151.766602,1599.558655,1150.377944,1612.056577,1147.446289,1624.708984 C1144.514634,1637.361391,1141.042989,1649.782166,1137.031250,1661.971680 C1133.019511,1674.161194,1129.007833,1685.733344,1124.996094,1696.688477 C1120.984355,1707.643609,1118.361334,1715.744114,1117.126953,1720.990234 C1114.658191,1731.791070,1113.732419,1738.580064,1114.349609,1741.357422 C1121.755896,1734.876921,1126.230461,1728.550812,1127.773438,1722.378906 L1145.826172,1688.125000 C1185.943560,1615.913701,1225.134574,1568.082149,1263.400391,1544.628906 C1274.509821,1538.148405,1287.856367,1534.908203,1303.440430,1534.908203 C1319.024492,1534.908203,1331.599562,1540.385687,1341.166016,1551.340820 C1350.732470,1562.295953,1355.747068,1574.408137,1356.209961,1587.677734 C1356.672854,1600.947332,1355.747082,1611.979448,1353.432617,1620.774414 C1351.118152,1629.569380,1347.646508,1637.824180,1343.017578,1645.539062 C1332.833933,1662.820399,1320.490307,1671.460938,1305.986328,1671.460938 C1301.974589,1671.460938,1298.271501,1670.072280,1294.876953,1667.294922 L1284.693359,1658.500000 C1274.509715,1649.550737,1264.711961,1645.076172,1255.299805,1645.076172 C1245.887648,1645.076172,1234.469794,1651.247985,1221.045898,1663.591797 C1207.622003,1675.935609,1193.658276,1691.828028,1179.154297,1711.269531 C1130.396241,1775.765947,1090.588045,1847.976163,1059.728516,1927.902344 L1039.361328,1981.597656 C1034.115208,1994.867254,1029.486348,2004.356417,1025.474609,2010.065430 C1021.462871,2015.774443,1015.522500,2018.628906,1007.653320,2018.628906 C999.784140,2018.628906,991.915078,2017.163101,984.045898,2014.231445 C976.176718,2011.299790,969.156281,2007.519554,962.984375,2002.890625 Z M1597.607422,1426.591797 C1590.818325,1433.689489,1583.103559,1439.475564,1574.462891,1443.950195 C1565.822222,1448.424827,1556.718798,1451.202143,1547.152344,1452.282227 C1537.585890,1453.362310,1528.559613,1451.896504,1520.073242,1447.884766 C1511.586872,1443.873027,1504.257843,1438.164100,1498.085938,1430.757812 C1484.816340,1415.328048,1478.181641,1399.744219,1478.181641,1384.005859 C1478.181641,1368.267499,1480.727514,1356.463907,1485.819336,1348.594727 C1490.911158,1340.725547,1497.314415,1334.322290,1505.029297,1329.384766 C1519.841871,1319.818312,1533.805598,1315.035156,1546.920898,1315.035156 C1560.036198,1315.035156,1570.219690,1315.960928,1577.471680,1317.812500 C1584.723669,1319.664072,1591.435516,1322.749978,1597.607422,1327.070312 C1612.728591,1337.253957,1620.289062,1349.674731,1620.289062,1364.333008 C1620.289062,1378.991284,1618.206076,1391.180615,1614.040039,1400.901367 C1609.874003,1410.622119,1604.396518,1419.185510,1597.607422,1426.591797 Z M1502.714844,1927.439453 C1510.738321,1927.439453,1514.750000,1932.685494,1514.750000,1943.177734 C1514.750000,1957.064523,1508.423891,1971.413988,1495.771484,1986.226562 C1477.255767,2007.828233,1452.414218,2018.628906,1421.246094,2018.628906 C1385.449040,2018.628906,1360.916082,2004.125145,1347.646484,1975.117188 C1342.708960,1964.933543,1340.240234,1952.589916,1340.240234,1938.085938 C1340.240234,1923.581959,1342.786107,1907.458097,1347.877930,1889.713867 C1352.969752,1871.969638,1359.295861,1853.299903,1366.856445,1833.704102 C1374.417030,1814.108300,1382.671830,1794.281350,1391.621094,1774.222656 L1416.154297,1715.898438 C1434.052824,1672.386501,1443.001953,1643.687569,1443.001953,1629.800781 C1443.001953,1615.913993,1441.536147,1606.733421,1438.604492,1602.258789 C1435.672837,1597.784157,1432.509783,1594.312512,1429.115234,1591.843750 L1419.857422,1585.363281 C1416.771469,1583.203114,1415.228516,1579.422879,1415.228516,1574.022461 C1415.228516,1568.622043,1417.311503,1563.453150,1421.477539,1558.515625 C1425.643576,1553.578100,1431.121060,1549.257831,1437.910156,1545.554688 C1451.796944,1538.456996,1467.997954,1534.908203,1486.513672,1534.908203 C1531.877180,1534.908203,1554.558594,1546.788944,1554.558594,1570.550781 C1554.558594,1598.324358,1547.306713,1630.032048,1532.802734,1665.674805 C1518.298756,1701.317561,1505.955129,1730.093640,1495.771484,1752.003906 L1467.998047,1815.882812 C1447.630758,1862.789297,1437.447266,1896.579975,1437.447266,1917.255859 C1437.447266,1930.834052,1444.236260,1937.623047,1457.814453,1937.623047 C1471.084051,1937.623047,1481.113247,1935.925798,1487.902344,1932.531250 C1494.691440,1929.136702,1499.628891,1927.439453,1502.714844,1927.439453 Z M1888.302734,1892.722656 C1897.251998,1892.722656,1901.726562,1898.740174,1901.726562,1910.775391 C1901.726562,1920.959035,1898.640656,1930.833937,1892.468750,1940.400391 C1884.136677,1958.298918,1867.472781,1975.271404,1842.476562,1991.318359 C1814.085796,2009.525482,1785.541159,2018.628906,1756.841797,2018.628906 C1707.157955,2018.628906,1675.681707,1996.410378,1662.412109,1951.972656 C1646.673749,1899.202861,1670.280935,1787.338745,1733.234375,1616.376953 C1697.745916,1613.291000,1678.459000,1607.119187,1675.373047,1597.861328 C1674.447261,1595.083970,1673.984375,1592.075212,1673.984375,1588.834961 C1673.984375,1585.594710,1675.450181,1581.814475,1678.381836,1577.494141 C1681.313491,1573.173807,1685.093727,1569.007833,1689.722656,1564.996094 C1700.523492,1556.046830,1711.478460,1551.572266,1722.587891,1551.572266 L1759.156250,1551.572266 C1792.484542,1473.497657,1816.246023,1429.060601,1830.441406,1418.259766 C1837.230503,1413.322241,1844.790974,1410.853516,1853.123047,1410.853516 C1861.455120,1410.853516,1868.398410,1411.933583,1873.953125,1414.093750 C1879.507840,1416.253917,1884.445291,1419.339824,1888.765625,1423.351562 C1898.640674,1432.609421,1903.578125,1442.947209,1903.578125,1454.365234 C1903.578125,1460.537140,1901.726581,1467.634726,1898.023438,1475.658203 L1863.769531,1550.183594 L1874.878906,1550.183594 C1894.011814,1550.183594,1909.441348,1550.029298,1921.167969,1549.720703 C1921.167969,1549.720703,1929.962803,1549.566408,1947.552734,1549.257812 C1953.416045,1548.949217,1960.745073,1548.794922,1969.540039,1548.794922 C1978.335005,1548.794922,1982.732422,1552.035124,1982.732422,1558.515625 C1982.732422,1599.250204,1934.592278,1619.617188,1838.310547,1619.617188 L1834.607422,1619.617188 L1803.130859,1701.085938 C1767.642401,1797.367669,1749.898438,1864.794729,1749.898438,1903.369141 C1749.898438,1914.169976,1752.367163,1922.579071,1757.304688,1928.596680 C1762.242212,1934.614288,1771.499932,1937.623047,1785.078125,1937.623047 C1798.656318,1937.623047,1810.999944,1935.308617,1822.109375,1930.679688 C1833.218806,1926.050758,1842.939411,1920.881864,1851.271484,1915.172852 C1859.603557,1909.463839,1866.778290,1904.294945,1872.795898,1899.666016 C1878.813507,1895.037086,1883.982400,1892.722656,1888.302734,1892.722656 Z M2209.085938,1426.591797 C2202.296841,1433.689489,2194.582074,1439.475564,2185.941406,1443.950195 C2177.300738,1448.424827,2168.197313,1451.202143,2158.630859,1452.282227 C2149.064405,1453.362310,2140.038128,1451.896504,2131.551758,1447.884766 C2123.065387,1443.873027,2115.736359,1438.164100,2109.564453,1430.757812 C2096.294856,1415.328048,2089.660156,1399.744219,2089.660156,1384.005859 C2089.660156,1368.267499,2092.206029,1356.463907,2097.297852,1348.594727 C2102.389674,1340.725547,2108.792930,1334.322290,2116.507812,1329.384766 C2131.320387,1319.818312,2145.284114,1315.035156,2158.399414,1315.035156 C2171.514714,1315.035156,2181.698206,1315.960928,2188.950195,1317.812500 C2196.202185,1319.664072,2202.914032,1322.749978,2209.085938,1327.070312 C2224.207107,1337.253957,2231.767578,1349.674731,2231.767578,1364.333008 C2231.767578,1378.991284,2229.684591,1391.180615,2225.518555,1400.901367 C2221.352518,1410.622119,2215.875034,1419.185510,2209.085938,1426.591797 Z M2114.193359,1927.439453 C2122.216837,1927.439453,2126.228516,1932.685494,2126.228516,1943.177734 C2126.228516,1957.064523,2119.902407,1971.413988,2107.250000,1986.226562 C2088.734282,2007.828233,2063.892734,2018.628906,2032.724609,2018.628906 C1996.927555,2018.628906,1972.394598,2004.125145,1959.125000,1975.117188 C1954.187475,1964.933543,1951.718750,1952.589916,1951.718750,1938.085938 C1951.718750,1923.581959,1954.264623,1907.458097,1959.356445,1889.713867 C1964.448268,1871.969638,1970.774376,1853.299903,1978.334961,1833.704102 C1985.895546,1814.108300,1994.150346,1794.281350,2003.099609,1774.222656 L2027.632812,1715.898438 C2045.531339,1672.386501,2054.480469,1643.687569,2054.480469,1629.800781 C2054.480469,1615.913993,2053.014663,1606.733421,2050.083008,1602.258789 C2047.151353,1597.784157,2043.988298,1594.312512,2040.593750,1591.843750 L2031.335938,1585.363281 C2028.249985,1583.203114,2026.707031,1579.422879,2026.707031,1574.022461 C2026.707031,1568.622043,2028.790018,1563.453150,2032.956055,1558.515625 C2037.122091,1553.578100,2042.599575,1549.257831,2049.388672,1545.554688 C2063.275460,1538.456996,2079.476470,1534.908203,2097.992188,1534.908203 C2143.355696,1534.908203,2166.037109,1546.788944,2166.037109,1570.550781 C2166.037109,1598.324358,2158.785229,1630.032048,2144.281250,1665.674805 C2129.777271,1701.317561,2117.433645,1730.093640,2107.250000,1752.003906 L2079.476562,1815.882812 C2059.109273,1862.789297,2048.925781,1896.579975,2048.925781,1917.255859 C2048.925781,1930.834052,2055.714776,1937.623047,2069.292969,1937.623047 C2082.562566,1937.623047,2092.591763,1935.925798,2099.380859,1932.531250 C2106.169956,1929.136702,2111.107406,1927.439453,2114.193359,1927.439453 Z M2609.486328,1596.472656 C2631.087999,1577.956939,2649.140552,1568.699219,2663.644531,1568.699219 C2672.285199,1568.699219,2681.080033,1571.939421,2690.029297,1578.419922 C2706.693443,1590.763734,2713.636733,1601.410112,2710.859375,1610.359375 C2709.933589,1613.753923,2708.544931,1617.765602,2706.693359,1622.394531 L2700.675781,1638.132812 C2696.355447,1650.476624,2691.726587,1661.740183,2686.789062,1671.923828 C2681.851538,1682.107473,2675.679725,1695.531167,2668.273438,1712.195312 C2616.120833,1836.250620,2583.024484,1919.107214,2568.983398,1960.767578 C2554.942313,2002.427943,2544.835968,2034.829962,2538.664062,2057.974609 C2524.468679,2109.201428,2517.371094,2146.078012,2517.371094,2168.605469 C2517.371094,2200.699379,2519.145490,2221.914987,2522.694336,2232.252930 C2526.243182,2242.590872,2527.477544,2249.919900,2526.397461,2254.240234 C2525.317377,2258.560568,2523.080095,2262.109361,2519.685547,2264.886719 C2512.896450,2270.441434,2504.255912,2273.218750,2493.763672,2273.218750 C2483.271432,2273.218750,2474.013712,2271.367206,2465.990234,2267.664062 C2457.966757,2263.960919,2450.714876,2258.097696,2444.234375,2250.074219 C2430.038992,2231.867096,2423.558588,2205.791185,2424.792969,2171.845703 C2425.410159,2126.790790,2446.702915,2055.660642,2488.671875,1958.453125 L2518.759766,1889.019531 C2493.763547,1927.285348,2472.470791,1954.441326,2454.880859,1970.488281 C2419.083805,2002.582192,2383.904470,2018.628906,2349.341797,2018.628906 C2296.572002,2018.628906,2261.701257,1991.164337,2244.728516,1936.234375 C2238.865205,1917.410062,2235.933594,1894.265762,2235.933594,1866.800781 C2235.933594,1839.335800,2240.022420,1811.794083,2248.200195,1784.174805 C2256.377971,1756.555526,2267.487234,1730.402467,2281.528320,1705.714844 C2295.569406,1681.027220,2311.924711,1658.268659,2330.594727,1637.438477 C2349.264742,1616.608294,2369.091692,1598.632888,2390.076172,1583.511719 C2434.513894,1551.109213,2476.636520,1534.908203,2516.445312,1534.908203 C2556.254105,1534.908203,2587.267467,1555.429482,2609.486328,1596.472656 Z M2371.560547,1949.195312 C2403.345862,1949.195312,2439.913856,1918.181951,2481.265625,1856.154297 C2523.851775,1791.966476,2553.630775,1722.070691,2570.603516,1646.464844 C2569.369134,1625.480364,2560.574301,1610.050831,2544.218750,1600.175781 C2538.664035,1596.781233,2530.254939,1595.083984,2518.991211,1595.083984 C2507.727483,1595.083984,2494.612380,1599.172811,2479.645508,1607.350586 C2464.678636,1615.528361,2450.329170,1626.560477,2436.596680,1640.447266 C2422.864189,1654.334054,2409.980529,1670.612211,2397.945312,1689.282227 C2385.910096,1707.952242,2375.418013,1727.779192,2366.468750,1748.763672 C2347.335842,1793.509989,2337.769531,1838.101340,2337.769531,1882.539062 C2337.769531,1926.976785,2349.033090,1949.195312,2371.560547,1949.195312 Z M2605.320312,1600.175781 C2604.703122,1600.175781,2604.240236,1600.638667,2603.931641,1601.564453 Z M3167.732422,1922.810547 C3174.830114,1922.810547,3178.378906,1926.359340,3178.378906,1933.457031 C3178.378906,1960.304822,3165.109508,1982.831940,3138.570312,2001.039062 C3120.671786,2012.765684,3099.687620,2018.628906,3075.617188,2018.628906 C3055.867089,2018.628906,3040.746146,2014.000046,3030.253906,2004.742188 C3011.429593,1988.078042,3002.017578,1967.711058,3002.017578,1943.640625 C3002.017578,1913.089691,3014.824091,1866.338205,3040.437500,1803.384766 C2992.913825,1867.572587,2959.586033,1910.235246,2940.453125,1931.374023 C2921.320217,1952.512801,2904.656321,1968.945254,2890.460938,1980.671875 C2859.601408,2005.976689,2831.673953,2018.628906,2806.677734,2018.628906 C2768.411918,2018.628906,2742.953188,2002.119306,2730.300781,1969.099609 C2726.597638,1958.915965,2724.746094,1947.266667,2724.746094,1934.151367 C2724.746094,1921.036067,2726.983376,1906.378011,2731.458008,1890.176758 C2735.932640,1873.975505,2741.718715,1857.080166,2748.816406,1839.490234 C2755.914098,1821.900303,2763.628865,1803.847749,2771.960938,1785.332031 L2796.957031,1729.785156 C2829.050942,1658.499644,2840.931682,1616.222723,2832.599609,1602.953125 C2828.896466,1597.089814,2821.953176,1591.226592,2811.769531,1585.363281 C2808.066388,1583.203114,2806.214844,1579.422879,2806.214844,1574.022461 C2806.214844,1568.622043,2808.452126,1563.453150,2812.926758,1558.515625 C2817.401390,1553.578100,2823.187465,1549.257831,2830.285156,1545.554688 C2845.406326,1538.456996,2860.527268,1534.908203,2875.648438,1534.908203 C2890.769607,1534.908203,2902.264609,1536.528304,2910.133789,1539.768555 C2918.002969,1543.008805,2924.406225,1547.097632,2929.343750,1552.035156 C2939.527395,1562.218801,2944.619141,1573.482360,2944.619141,1585.826172 C2944.619141,1598.169984,2942.613301,1611.979416,2938.601562,1627.254883 C2934.589824,1642.530350,2929.343782,1659.117098,2922.863281,1677.015625 C2916.382780,1694.914152,2909.285195,1713.429592,2901.570312,1732.562500 C2880.277237,1782.554937,2865.927771,1815.574139,2858.521484,1831.621094 L2841.394531,1867.263672 C2831.828077,1888.556747,2827.044922,1903.523394,2827.044922,1912.164062 C2827.044922,1920.804731,2828.433580,1926.899396,2831.210938,1930.448242 C2833.988295,1933.997088,2839.002893,1935.771484,2846.254883,1935.771484 C2853.506872,1935.771484,2861.915968,1932.376987,2871.482422,1925.587891 C2881.048876,1918.798794,2891.540959,1909.695370,2902.958984,1898.277344 C2914.377010,1886.859318,2926.257751,1873.667067,2938.601562,1858.700195 C2950.945374,1843.733324,2962.980410,1828.226643,2974.707031,1812.179688 C2997.851678,1780.702968,3014.824165,1755.398533,3025.625000,1736.265625 C3091.047202,1620.542390,3125.917947,1560.058620,3130.238281,1554.812500 C3140.113331,1541.542902,3150.219675,1534.908203,3160.557617,1534.908203 C3170.895560,1534.908203,3179.921836,1536.065418,3187.636719,1538.379883 C3195.351601,1540.694348,3201.986300,1544.011697,3207.541016,1548.332031 C3220.502018,1557.898485,3224.667992,1567.464796,3220.039062,1577.031250 C3144.741811,1734.106254,3104.162139,1832.855267,3098.298828,1873.281250 C3096.755852,1887.168038,3095.984375,1896.734349,3095.984375,1901.980469 C3095.984375,1925.433711,3103.081960,1937.160156,3117.277344,1937.160156 C3130.546941,1937.160156,3141.501910,1934.768579,3150.142578,1929.985352 C3158.783246,1925.202125,3164.646469,1922.810547,3167.732422,1922.810547 Z M3264.939453,1851.988281 C3266.173834,1825.140491,3270.648399,1799.450318,3278.363281,1774.916992 C3286.078164,1750.383666,3296.415951,1726.622185,3309.376953,1703.631836 C3322.337955,1680.641487,3337.536046,1658.885845,3354.971680,1638.364258 C3372.407314,1617.842671,3391.308492,1599.867265,3411.675781,1584.437500 C3455.804908,1551.417804,3500.396259,1534.908203,3545.451172,1534.908203 C3598.220967,1534.908203,3633.400303,1556.663845,3650.990234,1600.175781 C3657.162140,1614.988355,3660.093752,1632.500875,3659.785156,1652.713867 C3659.476561,1672.926859,3655.619178,1691.596594,3648.212891,1708.723633 C3640.806604,1725.850672,3630.545964,1741.434500,3617.430664,1755.475586 C3604.315364,1769.516672,3588.731536,1782.091741,3570.678711,1793.201172 C3552.625886,1804.310602,3532.953231,1813.722618,3511.660156,1821.437500 C3467.839625,1836.867265,3420.933844,1844.890622,3370.941406,1845.507812 C3369.707025,1849.828147,3368.935548,1856.308551,3368.626953,1864.949219 C3368.318358,1873.589887,3369.244130,1883.233345,3371.404297,1893.879883 C3373.564464,1904.526420,3377.267552,1914.015583,3382.513672,1922.347656 C3393.623102,1940.863374,3409.669817,1950.121094,3430.654297,1950.121094 C3466.451351,1950.121094,3501.322096,1939.629011,3535.267578,1918.644531 C3547.302795,1911.546840,3557.100548,1904.217811,3564.661133,1896.657227 C3572.221717,1889.096642,3578.779269,1885.316406,3584.333984,1885.316406 C3589.888700,1885.316406,3594.749003,1888.633756,3598.915039,1895.268555 C3603.081076,1901.903353,3605.164062,1909.386677,3605.164062,1917.718750 C3605.164062,1934.074301,3600.535203,1948.269471,3591.277344,1960.304688 C3552.394337,1999.187694,3494.533587,2018.628906,3417.693359,2018.628906 C3372.329851,2018.628906,3335.916153,2005.050917,3308.451172,1977.894531 C3277.591643,1947.035002,3263.087881,1905.066672,3264.939453,1851.988281 Z M3535.267578,1596.472656 C3502.865072,1596.472656,3471.697415,1618.691184,3441.763672,1663.128906 C3416.458858,1701.394723,3396.091874,1746.757550,3380.662109,1799.218750 C3432.197523,1793.972630,3476.943170,1773.605646,3514.900391,1738.117188 C3549.771659,1704.788896,3567.207031,1672.849762,3567.207031,1642.298828 C3567.207031,1611.747894,3556.560653,1596.472656,3535.267578,1596.472656 Z " stroke-linejoin="round" style="fill: rgba(255, 255, 255, 1.000000); stroke-width: 24.000000px; stroke: rgba(255, 255, 255, 1.000000); " fill="#fefefe" stroke="#ffffff" stroke-width="24.000000" />
</g></svg>